<svg xmlns="http://www.w3.org/2000/svg" viewBox="86 246.565 202.406 56.435">
  <defs>
    <style>
      .cls-1 {
        fill: none;
      }
    </style>
  </defs>
  <g id="logo" transform="translate(-171 -6007.435)">
    <g id="logo-2" data-name="logo" transform="translate(257 6254)">
      <path id="パス_322" data-name="パス 322" d="M23.235,0V11.4a.778.778,0,0,1-.724.724H16.724A.778.778,0,0,1,16,11.4V0" transform="translate(12.941)"/>
      <path id="パス_323" data-name="パス 323" d="M29.135,0V11.4a.778.778,0,0,1-.724.724H22.624A.778.778,0,0,1,21.9,11.4V0" transform="translate(17.713)"/>
      <path id="パス_324" data-name="パス 324" d="M18.631,1.8v8.321a.778.778,0,0,1-.724.724H.724C.362,10.663,0,10.482,0,10.121V1.8" transform="translate(0 1.456)"/>
      <path id="パス_325" data-name="パス 325" d="M18.631,19.644a.778.778,0,0,1-.724.724H.724A.778.778,0,0,1,0,19.644V11.324A.778.778,0,0,1,.724,10.6H17.907a.778.778,0,0,1,.724.724v8.321Z" transform="translate(0 8.573)"/>
      <path id="パス_326" data-name="パス 326" d="M128.8,19.644a.778.778,0,0,1-.724.724H91.724A.778.778,0,0,1,91,19.644V11.324a.778.778,0,0,1,.724-.724h36.357a.778.778,0,0,1,.724.724Z" transform="translate(73.602 8.573)"/>
      <path id="パス_327" data-name="パス 327" d="M39.613,9.1H29.484a.48.48,0,0,0-.543.543v9.044c0,4.341-.724,9.948-6.512,13.747-6.693,4.522-15.013,4.522-18.993,4.522H.543A.48.48,0,0,0,0,37.5V47.628a.48.48,0,0,0,.543.543H3.618c4.7,0,15.737,0,25.323-6.512,7.6-5.065,11.4-12.843,11.4-23.153V9.462A.94.94,0,0,0,39.613,9.1Z" transform="translate(0 7.36)"/>
      <path id="パス_328" data-name="パス 328" d="M30.365,1.8v8.321a.778.778,0,0,0,.724.724H42.122V17.9h-16.1a.778.778,0,0,0-.724.724v8.321a.778.778,0,0,0,.724.724h16.1V38.881c0,7.6,5.246,13.385,13.2,14.29,3.437.362,9.225,1.085,11.938,1.266h0a.48.48,0,0,0,.543-.543h0V43.764h0c0-.181-.181-.362-.362-.543h-.181c-3.075-.362-7.959-.9-10.853-1.085-2.351-.362-3.437-1.447-3.437-3.437V27.485h16.46a.778.778,0,0,0,.724-.724V18.441a.778.778,0,0,0-.724-.724H52.975V10.663h14.29a.778.778,0,0,0,.724-.724V1.8" transform="translate(20.463 1.456)"/>
      <path id="パス_329" data-name="パス 329" d="M90.928,10.6h-37.8a.778.778,0,0,0-.724.724v8.321a.778.778,0,0,0,.724.724H67.051c-.543,5.065-2.532,13.2-11.034,16.1h0c-.181,0-.362.181-.362.543v10.31a.48.48,0,0,0,.543.543h.181l.543-.181A26.525,26.525,0,0,0,74.106,34.838a35.008,35.008,0,0,0,3.979-14.471H91.109a.778.778,0,0,0,.724-.724V11.324A1.2,1.2,0,0,0,90.928,10.6Z" transform="translate(42.382 8.573)"/>
      <path id="パス_330" data-name="パス 330" d="M53.3,1.8v8.321a.778.778,0,0,0,.724.724H89.115a.778.778,0,0,0,.724-.724V1.8" transform="translate(43.11 1.456)"/>
      <path id="パス_331" data-name="パス 331" d="M103.14,11.143a.48.48,0,0,0-.543-.543H93.191c-.181,0-.362.181-.543.362v.181h0c-.543,2.894-2.894,7.959-6.512,10.672-6.512,4.522-11.938,5.065-15.194,5.065h0a.48.48,0,0,0-.543.543v9.044a.48.48,0,0,0,.543.543h0A35.878,35.878,0,0,0,84.509,34.3V46.776a.778.778,0,0,0,.724.724h9.044A.778.778,0,0,0,95,46.776V27.6a30.659,30.659,0,0,0,5.065-7.054,22.925,22.925,0,0,0,3.075-9.406Z" transform="translate(56.941 8.573)"/>
    </g>
    <rect id="長方形_210" data-name="長方形 210" class="cls-1" width="197.522" height="56.435" transform="translate(259.822 6254)"/>
  </g>
</svg>
